<?xml version="1.0" encoding="utf-8"?>
<!-- Generator: Adobe Illustrator 28.1.0, SVG Export Plug-In . SVG Version: 6.00 Build 0)  -->
<svg version="1.1" id="Layer_1" xmlns="http://www.w3.org/2000/svg" xmlns:xlink="http://www.w3.org/1999/xlink" x="0px" y="0px"
	 viewBox="0 0 1080 400" style="enable-background:new 0 0 1080 400;" xml:space="preserve">
<style type="text/css">
	.st0{fill:url(#SVGID_1_);}
	.st1{fill:url(#SVGID_00000143583743353017195070000000181472006238298283_);}
	.st2{fill:#FFFFFF;}
	.st3{fill:url(#SVGID_00000155859035512364821550000002849725347936855226_);}
	.st4{fill:url(#SVGID_00000051361265252345702190000001028454481125611651_);}
	.st5{fill:url(#SVGID_00000001665554465513789640000014330879083563547799_);}
	.st6{fill:url(#SVGID_00000179614793968138333760000014296135748207872930_);}
	.st7{fill:url(#SVGID_00000018214408209864946600000016448598346239128199_);}
	.st8{fill:url(#SVGID_00000063635810245134248940000000917035111292584634_);}
	.st9{fill:url(#SVGID_00000167374999498785247040000002551631722807166612_);}
	.st10{fill:url(#SVGID_00000080886718244784060870000006785037616384570521_);}
	.st11{fill:url(#SVGID_00000170991977525137241250000000574819234626517408_);}
</style>
<linearGradient id="SVGID_1_" gradientUnits="userSpaceOnUse" x1="64.7949" y1="177.1115" x2="367.0223" y2="177.1115">
	<stop  offset="0" style="stop-color:#F9B317"/>
	<stop  offset="0.5315" style="stop-color:#DC8821"/>
	<stop  offset="1" style="stop-color:#C56728"/>
</linearGradient>
<path class="st0" d="M200.13,24.51c5.71,0.64,11.44,1.18,17.14,1.92c32.62,4.27,61.64,16.82,86.88,37.91
	c31.13,26.01,51.14,58.82,59.58,98.46c1.76,8.26,2.2,16.8,3.21,25.22c0.28,2.33-0.08,4.08-3.12,4.15
	c-31.63,0.79-61.55,9.85-91.14,19.76c-67.35,22.56-127.39,57.95-180.69,104.73c-4.27,3.75-7.53,8.66-11.28,13.06
	c-2.41-2.02-3.33-2.65-4.08-3.44c-3.72-3.97-7.4-7.99-11.84-12.82c6.71-5.98,13.74-12.47,21.02-18.67
	c13.71-11.7,28.25-22.26,44.34-30.53c4.98-2.56,7.97-6.47,10.2-11.57c15.69-35.91,31.58-71.74,47.43-107.59
	c0.56-1.26,1.27-2.45,2.25-4.31c8.74,16.63,17.12,32.66,25.58,48.64c3.97,7.51,8.23,14.86,12.07,22.43
	c1.77,3.49,3.67,3.74,7.22,2.53c15.12-5.14,30.35-9.97,45.59-14.75c2.81-0.88,5.83-1.06,8.69-1.55
	c-16.35-29.76-32.45-59.06-48.55-88.38c-14.81-26.96-29.62-53.91-44.4-80.88c-0.75-1.38-1.27-2.88-1.9-4.32
	C196.26,24.51,198.2,24.51,200.13,24.51z"/>
<linearGradient id="SVGID_00000031913165446943805430000013144844122093717153_" gradientUnits="userSpaceOnUse" x1="20" y1="162.2713" x2="185.6397" y2="162.2713">
	<stop  offset="0" style="stop-color:#F9B317"/>
	<stop  offset="0.5315" style="stop-color:#DC8821"/>
	<stop  offset="1" style="stop-color:#C56728"/>
</linearGradient>
<path style="fill:url(#SVGID_00000031913165446943805430000013144844122093717153_);" d="M185.64,24.51
	c-0.45,2.11-0.52,4.39-1.39,6.3c-7.36,16.16-14.59,32.4-22.37,48.35C126.76,151.1,91.48,222.96,56.26,294.84
	c-0.7,1.43-1.44,2.84-2.64,5.19c-2.05-2.63-3.95-4.65-5.38-6.96c-13.93-22.59-23.54-46.68-26.86-73.25
	c-11-88.14,45.18-169.66,133.94-191.09c7.27-1.76,14.87-2.18,22.31-3.27c1.4-0.21,2.77-0.62,4.16-0.94
	C183.06,24.51,184.35,24.51,185.64,24.51z"/>
<path class="st2" d="M539.78,226.97c-2.52,0.14-4.11,0.37-5.69,0.3c-20.39-0.86-40.78-2.34-61.18-2.54
	c-35.39-0.34-70.65,1.2-104.93,11.45c-3.33,1-4.89,2.52-5.81,5.96c-17.63,65.93-59.18,109.38-124.97,127.51
	c-45.28,12.48-89.48,6.72-130.75-16.79c-4.71-2.68-4.87-4.53-1.24-8.48c38.86-42.25,86.04-72.37,138.6-94.59
	c31.72-13.41,64.73-22.69,98.68-28.16c15.65-2.52,31.62-3.54,47.48-4.15c23.13-0.88,46.35-1.86,69.44-0.8
	c23.2,1.06,46.29,4.54,69.43,7.02c3.02,0.32,6,1.02,8.99,1.61C538.21,225.39,538.52,225.88,539.78,226.97z"/>
<linearGradient id="SVGID_00000079450511081541156550000013261217853609800633_" gradientUnits="userSpaceOnUse" x1="739.1724" y1="196.0686" x2="739.1724" y2="75.5048">
	<stop  offset="0" style="stop-color:#F9B317"/>
	<stop  offset="0.5315" style="stop-color:#DC8821"/>
	<stop  offset="1" style="stop-color:#C56728"/>
</linearGradient>
<path style="fill:url(#SVGID_00000079450511081541156550000013261217853609800633_);" d="M723.46,75.6c0,13.78,0,27.02,0,41.32
	c3.01-1.92,5.29-3.26,7.44-4.77c8.44-5.91,17.97-6.29,27.23-3.79c11.6,3.12,19.01,11.51,19.43,23.55c0.73,21.13,0.2,42.3,0.2,63.81
	c-6.92,0-13.88,0-21.28,0c-0.07-1.54-0.18-3.08-0.21-4.62c-0.27-15.56-0.46-31.13-0.83-46.69c-0.06-2.69-0.55-5.45-1.34-8.02
	c-2.6-8.4-12.47-11.47-20.58-6.41c-5.54,3.46-8.7,8.64-8.96,15.1c-0.57,14.25-0.8,28.52-1.15,42.78c-0.06,2.53-0.01,5.06-0.01,8.17
	c-7.1,0-13.81,0.16-20.49-0.19c-0.89-0.05-2.31-2.7-2.34-4.16c-0.19-12.2-0.11-24.41-0.11-36.61c0-24.89,0.08-49.78-0.08-74.67
	c-0.03-3.84,1.09-5.07,4.91-4.88C711.19,75.81,717.1,75.6,723.46,75.6z"/>
<linearGradient id="SVGID_00000031910774580493183940000015883126332575881870_" gradientUnits="userSpaceOnUse" x1="940.2143" y1="198.0775" x2="940.2143" y2="109.6171">
	<stop  offset="0" style="stop-color:#F9B317"/>
	<stop  offset="0.5315" style="stop-color:#DC8821"/>
	<stop  offset="1" style="stop-color:#C56728"/>
</linearGradient>
<path style="fill:url(#SVGID_00000031910774580493183940000015883126332575881870_);" d="M924.47,109.77
	c0,13.98-0.07,27.61,0.04,41.25c0.03,4.15,0.36,8.32,0.86,12.44c1.09,8.87,6.61,13.54,15.6,13.47c7.89-0.06,14.03-5.36,14.37-13.8
	c0.61-15.07,0.47-30.16,0.64-45.24c0.03-2.68,0-5.36,0-8.27c7.74,0,14.89,0,22.57,0c0,9.92,0.25,19.67-0.07,29.4
	c-0.37,11.17-0.2,22.51-2.16,33.44c-2.7,15.06-17,25.38-32.47,25.59c-9.25,0.13-18.29-0.22-26.31-5.67
	c-10.02-6.82-13.49-17.16-15.05-28.36c-0.69-4.9-0.64-9.93-0.68-14.9c-0.08-12.99-0.03-25.97-0.03-39.35
	C909.39,109.77,916.65,109.77,924.47,109.77z"/>
<linearGradient id="SVGID_00000151538823721752904980000012034881429532810925_" gradientUnits="userSpaceOnUse" x1="839.2543" y1="198.2389" x2="839.2543" y2="106.9646">
	<stop  offset="0" style="stop-color:#F9B317"/>
	<stop  offset="0.5315" style="stop-color:#DC8821"/>
	<stop  offset="1" style="stop-color:#C56728"/>
</linearGradient>
<path style="fill:url(#SVGID_00000151538823721752904980000012034881429532810925_);" d="M884.28,127.17
	c-6.34,3.39-11.29,6.37-16.56,8.65c-1.46,0.63-4.26-0.3-5.73-1.43c-9.66-7.45-20.22-7.76-30.96-3.59
	c-10.56,4.1-15.44,14.57-13.75,27.41c1.24,9.38,9.62,17.13,19.97,18.73c9.78,1.51,18.39-0.56,25.92-7.19c0.96-0.85,3.55-1,4.69-0.32
	c4.94,2.98,9.62,6.38,15.2,10.18c-2.42,2.73-4.43,5.58-7,7.78c-17.28,14.79-57.12,16.85-74.27-9.08
	c-16.41-24.81-5.87-62.3,28.42-69.74c16.89-3.66,32.97-1.44,46.63,10.27C879.45,121.07,881.46,123.97,884.28,127.17z"/>
<linearGradient id="SVGID_00000173143231688204891920000002278711573448688562_" gradientUnits="userSpaceOnUse" x1="1023.9545" y1="198.3412" x2="1023.9545" y2="106.8847">
	<stop  offset="0" style="stop-color:#F9B317"/>
	<stop  offset="0.5315" style="stop-color:#DC8821"/>
	<stop  offset="1" style="stop-color:#C56728"/>
</linearGradient>
<path style="fill:url(#SVGID_00000173143231688204891920000002278711573448688562_);" d="M992.91,182.55
	c4.59-4.82,9-9.44,12.8-13.43c5.76,2.94,10.84,5.69,16.09,8.11c1.5,0.69,3.66,0.96,5.15,0.42c2.09-0.76,5.04-2.18,5.42-3.83
	c0.51-2.19-0.35-5.67-1.95-7.17c-2.84-2.67-6.72-4.21-10.1-6.33c-5.27-3.31-11.16-6-15.6-10.2c-15.54-14.7-9.68-36.34,11.03-42.08
	c13.83-3.83,30.14,2.22,36.79,13.34c-4.43,4.73-8.78,9.37-13.23,14.12c-2.11-1.71-3.81-3.46-5.85-4.64c-2.31-1.34-4.92-3-7.39-2.97
	c-2.66,0.04-6.54,1.15-7.67,3.08c-1.85,3.15,1.35,5.57,4.07,7.06c6.03,3.3,12.36,6.09,18.27,9.58c7.8,4.61,13.22,11.14,14.1,20.58
	c1.1,11.77-3.73,20.54-14.19,26C1024.15,202.8,1002,197.59,992.91,182.55z"/>
<linearGradient id="SVGID_00000157283638064820111480000002413704379729368472_" gradientUnits="userSpaceOnUse" x1="627.9739" y1="196.186" x2="627.9739" y2="77.9701">
	<stop  offset="0" style="stop-color:#F9B317"/>
	<stop  offset="0.5315" style="stop-color:#DC8821"/>
	<stop  offset="1" style="stop-color:#C56728"/>
</linearGradient>
<path style="fill:url(#SVGID_00000157283638064820111480000002413704379729368472_);" d="M638.7,77.97c0,10.38,0,20.59,0,31.26
	c4.2,0,7.99,0,12.1,0c0,6.47,0,12.49,0,19.2c-3.82,0-7.73,0-12.09,0c0,3.83,0,7.01,0,10.19c0,17.51-0.07,35.03,0.06,52.54
	c0.03,3.56-0.69,5.27-4.77,5.01c-5.73-0.36-11.49-0.09-17.66-0.09c0-22.61,0-44.72,0-67.3c-3.87,0-7.32,0-11.18,0
	c0-6.61,0-12.75,0-19.33c3.52,0,6.99,0,10.9,0c0-10.64,0-20.86,0-31.47C623.62,77.97,630.76,77.97,638.7,77.97z"/>
<linearGradient id="SVGID_00000141424663082080141280000012728719587093150104_" gradientUnits="userSpaceOnUse" x1="579.9399" y1="195.7884" x2="579.9399" y2="106.9235">
	<stop  offset="0" style="stop-color:#F9B317"/>
	<stop  offset="0.5315" style="stop-color:#DC8821"/>
	<stop  offset="1" style="stop-color:#C56728"/>
</linearGradient>
<path style="fill:url(#SVGID_00000141424663082080141280000012728719587093150104_);" d="M576.11,116.87
	c13.17-10.87,17.13-11.98,27.11-7.42c-2.18,6.18-4.37,12.4-6.55,18.59c-11.49-1.99-16.36,1.54-16.93,13.24
	c-0.69,14.08-0.68,28.2-0.93,42.3c-0.07,3.98-0.01,7.95-0.01,12.2c-7.56,0-14.69,0-22.13,0c0-28.75,0-57.35,0-86.18
	c6.43,0,12.62,0,19.04,0C575.84,112.1,575.97,114.42,576.11,116.87z"/>
<linearGradient id="SVGID_00000037654085914390006390000006560370944043418018_" gradientUnits="userSpaceOnUse" x1="670.8389" y1="195.6786" x2="670.8389" y2="109.5698">
	<stop  offset="0" style="stop-color:#F9B317"/>
	<stop  offset="0.5315" style="stop-color:#DC8821"/>
	<stop  offset="1" style="stop-color:#C56728"/>
</linearGradient>
<path style="fill:url(#SVGID_00000037654085914390006390000006560370944043418018_);" d="M659.63,109.57c7.45,0,14.63,0,22.42,0
	c0,14.38,0,28.62,0,42.85c0,14.29,0,28.58,0,43.26c-7.47,0-14.77,0-22.42,0C659.63,167.08,659.63,138.42,659.63,109.57z"/>
<path class="st2" d="M872.31,249.58c0,6.89,0.14,13.3-0.11,19.71c-0.06,1.45-1.15,3.36-2.36,4.17c-9.58,6.4-20.06,8.39-31.19,5.12
	c-7.16-2.1-12.32-6.83-15.17-13.77c-3.29-8.01-3.59-16.3-0.87-24.45c5.43-16.24,27.86-23.29,41.48-12.84
	c3.44,2.64,5.55,7,8.92,11.43c-4.61,1.02-7.53,1.8-10.5,2.24c-0.81,0.12-2.23-0.57-2.61-1.29c-3.26-6.19-8.48-7.95-14.97-6.77
	c-6.83,1.24-11.03,5.63-11.79,12.24c-0.57,4.97-0.56,10.48,1,15.14c3.8,11.37,16.48,12.51,25.43,5.86c1.44-1.07,1.12-4.51,1.72-7.38
	c-4.68,0-8.49,0-12.67,0c0-3.29,0-6.21,0-9.41C856.41,249.58,864.05,249.58,872.31,249.58z"/>
<path class="st2" d="M960.45,274.3c-0.19,1.83-0.31,3.06-0.46,4.5c-3.04,0-6.02,0-9.36,0c0-18.15,0-36.14,0-54.42
	c3.4,0,6.67,0,10.45,0c0,6,0,11.82,0,17.2c4.11-1.13,7.8-2.75,11.59-3.04c6.81-0.52,11.77,3.11,14.43,9.16
	c3.31,7.51,3.17,15.35-0.14,22.84C983.15,279.13,971.55,284.72,960.45,274.3z M961.04,258.7c0.08,1.59,0.01,3.05,0.26,4.46
	c0.89,4.97,4.32,8.2,8.56,8.22c4.43,0.02,7.28-2.82,7.93-8.46c0.32-2.81,0.24-5.74-0.12-8.55c-0.6-4.69-3.66-7.57-7.72-7.76
	c-4.13-0.2-7.73,2.84-8.63,7.48C961.01,255.62,961.11,257.25,961.04,258.7z"/>
<path class="st2" d="M922.13,279.96c-12.69,0.03-20.74-8.01-20.78-20.77c-0.04-12.55,8.26-20.87,20.78-20.8
	c11.94,0.06,20.63,8.82,20.58,20.73C942.66,271.04,933.88,279.93,922.13,279.96z M931.36,259.11c0-9.06-6.26-14.34-13.14-11.12
	c-4.83,2.26-5.71,6.56-5.7,11.22c0,4.68,0.97,8.96,5.81,11.17C925.23,273.55,931.36,268.24,931.36,259.11z"/>
<path class="st2" d="M1031.32,279.07c-3.86-0.95-8.7,2.27-10.73-2.13c-5.08,1.04-9.77,2.61-14.53,2.83
	c-5.46,0.25-10.15-4.17-10.98-9.01c-1.08-6.32,1.5-11.3,7.51-13.34c4.37-1.49,9.01-2.15,13.45-3.47c1.24-0.37,3.21-2.09,3.04-2.64
	c-0.48-1.56-1.62-3.59-2.99-4.07c-3.42-1.2-6.89-1.16-9.53,2.26c-0.69,0.89-2.32,1.5-3.49,1.46c-2.21-0.07-4.4-0.71-7.3-1.24
	c1-2.05,1.82-3.84,2.73-5.58c4.13-7.9,24.91-7.26,28.83-1.6c1.21,1.74,2.17,3.99,2.31,6.08c0.37,5.26,0.04,10.57,0.3,15.85
	C1030.18,269.2,1030.82,273.94,1031.32,279.07z M1018.93,260.42c-3.05,0.74-5.84,1.37-8.6,2.09c-3.11,0.8-5.59,2.43-4.41,6.04
	c1.12,3.42,4.08,4.36,7.44,3.57C1018.1,271.01,1019.65,267.89,1018.93,260.42z"/>
<linearGradient id="SVGID_00000081636072506929280810000016436294313300675725_" gradientUnits="userSpaceOnUse" x1="670.7316" y1="102.5347" x2="670.7316" y2="73.508">
	<stop  offset="0" style="stop-color:#F9B317"/>
	<stop  offset="0.5315" style="stop-color:#DC8821"/>
	<stop  offset="1" style="stop-color:#C56728"/>
</linearGradient>
<path style="fill:url(#SVGID_00000081636072506929280810000016436294313300675725_);" d="M684.94,87.78
	c-0.06,8.56-5.79,14.7-13.76,14.75c-8.2,0.05-14.71-6.44-14.65-14.62c0.05-7.64,6.98-14.53,14.5-14.41
	C678.47,73.63,684.99,80.31,684.94,87.78z"/>
<path class="st2" d="M882.62,224.23c3.58,0,6.77,0,10.35,0c0,18.14,0,36.16,0,54.47c-3.35,0-6.66,0-10.35,0
	C882.62,260.74,882.62,242.73,882.62,224.23z"/>
<path class="st2" d="M1040.73,224.33c3.49,0,6.64,0,10.02,0c0,18.12,0,36,0,54.28c-3.17,0-6.43,0-10.02,0
	C1040.73,260.73,1040.73,242.72,1040.73,224.33z"/>
<linearGradient id="SVGID_00000178199672258450871210000010989004531047065012_" gradientUnits="userSpaceOnUse" x1="490.6931" y1="196.0865" x2="490.6931" y2="78.76">
	<stop  offset="0" style="stop-color:#F9B317"/>
	<stop  offset="0.5315" style="stop-color:#DC8821"/>
	<stop  offset="1" style="stop-color:#C56728"/>
</linearGradient>
<path style="fill:url(#SVGID_00000178199672258450871210000010989004531047065012_);" d="M546.36,193.27
	c-14.28-37.15-28.55-74.31-43.01-111.4c-0.54-1.38-2.89-2.77-4.5-2.89c-4.96-0.37-9.98,0.05-14.96-0.21
	c-3.33-0.17-5.08,0.82-6.34,4.11c-13.71,35.67-27.59,71.26-41.39,106.89c-0.72,1.87-1.06,3.89-1.64,6.09c8.22,0,15.91,0,23.52,0
	c3.11-7.89,6.14-15.59,9.32-23.68c14.88,0,29.83-0.06,44.77,0.12c1.07,0.01,2.6,1.59,3.09,2.78c2.43,5.91,4.51,11.96,6.92,17.88
	c0.49,1.21,1.86,2.91,2.88,2.94c7.18,0.26,14.38,0.14,21.85,0.14C546.65,194.79,546.63,193.98,546.36,193.27z M476,149.43
	c4.95-12.58,9.74-24.78,14.86-37.8c5.17,13.16,9.92,25.24,14.86,37.8C495.6,149.43,486.12,149.43,476,149.43z"/>
</svg>
