<?xml version="1.0" encoding="UTF-8"?>
<svg id="Layer_1" data-name="Layer 1" xmlns="http://www.w3.org/2000/svg" xmlns:xlink="http://www.w3.org/1999/xlink" viewBox="0 0 210 80">
  <defs>
    <style>
      .cls-1 {
        fill: #1379bc;
      }

      .cls-2 {
        fill: url(#linear-gradient-2);
      }

      .cls-3 {
        fill: #0995b0;
      }

      .cls-4 {
        fill: #8dc141;
      }

      .cls-5 {
        fill: #0f68ac;
      }

      .cls-6 {
        fill: #f9b418;
      }

      .cls-7 {
        fill: #fbcd13;
      }

      .cls-8 {
        fill: url(#linear-gradient-6);
      }

      .cls-9 {
        fill: #231f20;
        font-family: ArialMT, Arial;
        font-size: 3.46px;
      }

      .cls-10 {
        fill: #b9d133;
      }

      .cls-11 {
        fill: #77c044;
      }

      .cls-12 {
        fill: #ec6325;
      }

      .cls-13 {
        fill: #0599c4;
      }

      .cls-14 {
        fill: #0395cc;
      }

      .cls-15 {
        fill: #717275;
        font-family: GillSans-Light, GillSans-Light;
        font-size: 10.46px;
        font-weight: 300;
      }

      .cls-16 {
        fill: #ee97ba;
      }

      .cls-17 {
        fill: url(#linear-gradient-5);
      }

      .cls-18 {
        fill: #fad902;
      }

      .cls-19 {
        fill: #ffcd0a;
      }

      .cls-20 {
        fill: #f5acc8;
      }

      .cls-21 {
        fill: #8dc442;
      }

      .cls-22 {
        fill: url(#linear-gradient-7);
      }

      .cls-23 {
        fill: #d7dd2a;
      }

      .cls-24 {
        fill: #27b575;
      }

      .cls-25 {
        fill: #221f1f;
      }

      .cls-26 {
        fill: #f4eb28;
      }

      .cls-27 {
        fill: url(#linear-gradient-9);
      }

      .cls-28 {
        fill: #f7a51e;
      }

      .cls-29 {
        fill: #e76128;
      }

      .cls-30 {
        fill: url(#linear-gradient-3);
      }

      .cls-31 {
        fill: #0a6bad;
      }

      .cls-32 {
        fill: url(#linear-gradient);
      }

      .cls-33 {
        fill: #83c05e;
      }

      .cls-34 {
        fill: url(#linear-gradient-4);
      }

      .cls-35 {
        fill: url(#linear-gradient-8);
      }
    </style>
    <linearGradient id="linear-gradient" x1="121.67" y1="32.95" x2="121.67" y2="55.67" gradientUnits="userSpaceOnUse">
      <stop offset="0" stop-color="#29a1d8"/>
      <stop offset="1" stop-color="#1379bc"/>
    </linearGradient>
    <linearGradient id="linear-gradient-2" x1="165.09" y1="37.69" x2="165.09" y2="56.02" xlink:href="#linear-gradient"/>
    <linearGradient id="linear-gradient-3" x1="86.63" y1="37.69" x2="86.63" y2="56.02" xlink:href="#linear-gradient"/>
    <linearGradient id="linear-gradient-4" x1="193.46" y1="37.63" x2="193.46" y2="56.06" xlink:href="#linear-gradient"/>
    <linearGradient id="linear-gradient-5" x1="138.96" y1="37.69" x2="138.96" y2="56.06" xlink:href="#linear-gradient"/>
    <linearGradient id="linear-gradient-6" x1="103.83" y1="37.7" x2="103.83" y2="56.03" xlink:href="#linear-gradient"/>
    <linearGradient id="linear-gradient-7" x1="74.05" y1="32.96" x2="74.05" y2="55.72" xlink:href="#linear-gradient"/>
    <linearGradient id="linear-gradient-8" x1="152.5" y1="32.95" x2="152.5" y2="55.71" xlink:href="#linear-gradient"/>
    <linearGradient id="linear-gradient-9" x1="179.74" y1="38.05" x2="179.74" y2="55.66" xlink:href="#linear-gradient"/>
  </defs>
  <g>
    <g>
      <path class="cls-32" d="m118,40.15c.21-.17.32-.22.38-.31,2.12-3.17,8.58-3.27,10.89,2.1.4.94.56,2.04.58,3.07.08,3.32.03,6.65.06,9.97,0,.5-.15.69-.65.68-1.05-.02-2.1-.03-3.16,0-.55.01-.69-.21-.68-.73.02-2.89.01-5.79,0-8.68,0-1.14-.2-2.23-.89-3.19-1.44-2-4.58-1.86-5.82.27-.57.98-.74,2.06-.74,3.17,0,2.77-.02,5.55.02,8.32,0,.68-.22.87-.87.84-1-.05-2.01-.03-3.01,0-.5.01-.68-.16-.67-.66.02-7.08.02-14.16,0-21.23,0-.63.19-.87.83-.8.45.05.91,0,1.36.02,1.38.03,2.28.89,2.32,2.3.04,1.41.01,2.82.02,4.23,0,.16.02.32.04.64Z"/>
      <path class="cls-2" d="m172.9,50.23c-.44,1.73-1.25,3.01-2.48,4.03-2.82,2.33-7.73,2.36-10.55.04-1.83-1.51-2.59-3.58-2.83-5.86-.18-1.72-.11-3.43.35-5.12.83-3.09,3.06-5.15,6.24-5.54,2.18-.27,4.3,0,6.2,1.25,1.83,1.2,2.68,3.02,3.08,5.07.2,1.02.19,2.09.3,3.14.06.63-.19.84-.82.84-3.3-.02-6.6,0-9.9-.03-.7,0-.83.17-.74.86.45,3.27,3.07,3.66,5.05,2.94.42-.16.81-.5,1.13-.84.47-.5,1-.78,1.7-.77,1.05.01,2.09,0,3.27,0Zm-7.93-5.18c.96,0,1.91.02,2.87-.02.18,0,.49-.25.5-.39.03-1.29-.92-2.55-2.15-2.91-2.22-.65-4.02.5-4.42,2.78-.08.46.08.55.47.54.91-.01,1.82,0,2.72,0Z"/>
      <path class="cls-30" d="m88.97,48.06c-1.67,0-3.35.02-5.02-.01-.6-.01-.72.19-.65.75.32,2.83,2.8,4.2,5.37,2.91.29-.15.56-.38.76-.63.49-.62,1.1-.88,1.87-.86.84.02,1.67.02,2.51,0,.58-.02.65.2.47.69-1.06,3-3.79,4.98-7.04,5.1-2.55.1-4.84-.5-6.59-2.49-1.02-1.16-1.62-2.54-1.88-4.05-.44-2.64-.42-5.25.78-7.72,1.04-2.13,2.76-3.45,5.11-3.88,1.9-.34,3.77-.23,5.56.52,2.77,1.17,3.92,3.51,4.36,6.3.14.87.11,1.76.17,2.64.04.57-.21.76-.76.75-1.67-.02-3.35,0-5.02,0,0,0,0-.01,0-.02Zm-2.41-3.01c.93,0,1.86.02,2.79-.02.19,0,.54-.25.52-.35-.16-1.19-.51-2.29-1.75-2.83-2.18-.96-4.43.27-4.81,2.61-.08.47.08.6.52.59.91-.01,1.82,0,2.72,0Z"/>
      <path class="cls-34" d="m187.93,49.82c.22,0,.43.01.65,0,.88-.07,1.69-.13,1.87,1.11.05.36.52.76.89.96,1.39.73,2.84.74,4.3.19.55-.21.93-.59.97-1.22.04-.63-.34-1-.84-1.21-.7-.28-1.44-.49-2.17-.71-1.51-.45-3.05-.81-4.52-1.36-1.78-.67-2.97-1.94-3.04-3.96-.07-2.11.73-3.86,2.62-4.84,3.15-1.63,6.38-1.53,9.47.16,1.55.84,2.24,2.37,2.47,4.08.02.14-.25.46-.4.47-.86.04-1.74.11-2.58-.03-.54-.09-1.13-.42-1.51-.83-1.2-1.29-2.93-1.79-4.54-1.18-.53.2-.88.54-.95,1.14-.06.62.27.98.77,1.15,1.22.4,2.47.73,3.7,1.11,1.21.38,2.45.68,3.59,1.2,2.06.94,2.87,2.62,2.54,4.86-.33,2.23-1.59,3.74-3.69,4.43-2.77.9-5.59.97-8.38,0-2.12-.75-3.48-2.71-3.51-4.95,0-.43.13-.61.58-.59.57.03,1.15,0,1.72,0Z"/>
      <path class="cls-17" d="m133.41,49.81c.22,0,.43.02.65,0,.93-.1,1.73-.07,1.9,1.16.04.3.38.64.67.8,1.54.86,3.15.96,4.73.17,1.02-.51,1.05-1.67.04-2.19-.73-.38-1.56-.55-2.36-.8-1.53-.47-3.09-.83-4.58-1.41-1.75-.68-2.88-1.97-2.93-3.96-.05-2.11.82-3.76,2.66-4.83,1.84-1.07,3.86-1.2,5.91-.95.89.11,1.79.34,2.63.67,1.97.79,2.99,2.36,3.37,4.4.09.46-.03.68-.53.66-.45-.02-.91-.03-1.36,0-1.23.1-2.2-.25-2.99-1.29-.83-1.08-3.37-1.34-4.52-.59-.82.53-.84,1.64.07,2,1.25.51,2.6.79,3.88,1.22,1.42.48,2.85.95,4.22,1.55.94.41,1.46,1.28,1.73,2.27.78,2.88-.72,5.75-3.61,6.67-2.78.89-5.6.94-8.38-.04-2.09-.74-3.47-2.78-3.45-4.98,0-.4.14-.56.55-.55.57.02,1.15,0,1.72,0Z"/>
      <path class="cls-8" d="m109.36,43.46c-.24,0-.48-.02-.72,0-.89.09-1.52-.09-2.17-.91-1.45-1.85-4.72-1.21-5.52,1.03-.78,2.2-.81,4.47.12,6.66.86,2.02,3.92,2.67,5.47,1.1.89-.9,1.81-1.22,3-1.12.52.05,1.05.03,1.58,0,.6-.04.77.12.54.74-1.11,2.97-3.3,4.56-6.37,4.97-3.75.51-7.25-.96-8.69-4.86-.85-2.3-.87-4.69-.42-7.08.29-1.53.92-2.92,2.02-4.06,1.91-1.98,4.31-2.44,6.92-2.16,3.09.33,5.23,1.91,6.34,4.86.28.75.25.83-.53.83-.53,0-1.05,0-1.58,0Z"/>
      <path class="cls-22" d="m74.87,55.72c-.48-.03-.95-.09-1.43-.09-2.45-.01-3.05-1.66-3.05-3.33,0-4.71,0-9.42,0-14.13,0-1.48.02-2.97,0-4.45,0-.54.14-.8.73-.75.52.04,1.05,0,1.58.01,1.29.02,2.25.97,2.28,2.26.02.79.01,1.58,0,2.37,0,.4.15.56.55.54.52-.02,1.05,0,1.58-.02.43-.01.58.17.6.6.07,1.45-.74,2.45-2.19,2.58-.46.04-.54.23-.54.63.02,2.96.02,5.93.04,8.89,0,1.07.25,1.3,1.33,1.3,1.47,0,1.37-.09,1.37,1.35,0,.55,0,1.1,0,1.65,0,.39-.16.57-.55.57-.77,0-1.53,0-2.3,0,0,0,0,.01,0,.02Z"/>
      <path class="cls-35" d="m148.85,43.23c0-3.13.01-6.27-.01-9.4,0-.64.14-.94.84-.86.5.05,1,0,1.51.01,1.27.03,2.24,1.03,2.24,2.31,0,.74.03,1.48,0,2.22-.02.46.13.66.61.63.52-.03,1.06-.05,1.58.01.2.03.49.29.52.48.19,1.43-.7,2.54-2.14,2.66-.45.04-.56.2-.55.62.02,3.04.01,6.08.03,9.11,0,.76.33,1.06,1.1,1.09q1.62.06,1.62,1.67c0,1.93,0,1.94-1.95,1.92-.91-.01-1.82-.06-2.72-.12-1.57-.11-2.54-1.02-2.6-2.6-.08-2.13-.04-4.26-.06-6.38,0-1.12,0-2.25,0-3.37h0Z"/>
      <path class="cls-27" d="m179.44,50.59c0,1.48-.01,2.97,0,4.45,0,.48-.18.63-.63.62-1.15-.02-2.3,0-3.44,0-.36,0-.62-.06-.62-.5.03-3.18-.13-6.38.13-9.54.37-4.48,3.05-6.96,7.59-7.46.52-.06,1.05-.08,1.57-.11.46-.02.71.17.7.68-.02,1.12,0,2.25,0,3.37,0,.48-.19.7-.69.68-.55-.01-1.1,0-1.65.06-1.97.25-2.95,1.36-2.97,3.37-.02,1.46,0,2.92,0,4.38h0Z"/>
    </g>
    <path class="cls-25" d="m202.86,39.27c-1.78,0-3.23-1.45-3.23-3.23s1.45-3.23,3.23-3.23,3.23,1.45,3.23,3.23-1.45,3.23-3.23,3.23Zm0-6.22c-1.65,0-2.99,1.34-2.99,2.99s1.34,2.99,2.99,2.99,2.99-1.34,2.99-2.99-1.34-2.99-2.99-2.99Z"/>
    <text class="cls-9" transform="translate(200.32 37.46)"><tspan x="0" y="0">TM</tspan></text>
    <text class="cls-15" transform="translate(113.66 67.62)"><tspan x="0" y="0">We help you grow</tspan></text>
  </g>
  <g>
    <rect class="cls-33" x="12.23" y="27.12" width="3.24" height="3.24" rx="1.62" ry="1.62"/>
    <rect class="cls-33" x="21.59" y="34.23" width="2.64" height="2.64" rx="1.32" ry="1.32"/>
    <rect class="cls-33" x="27.21" y="27.52" width="1.1" height="1.1"/>
    <rect class="cls-33" x="30.39" y="26.02" width="1.5" height="1.5"/>
    <rect class="cls-33" x="37.46" y="31.2" width="1.97" height="1.97"/>
    <rect class="cls-33" x="34.54" y="27.41" width="2.18" height="2.18"/>
    <rect class="cls-33" x="38.68" y="35.61" width="2.53" height="2.53"/>
    <rect class="cls-33" x="6.78" y="27.72" width="2.21" height="2.21" rx="1.1" ry="1.1"/>
    <rect class="cls-33" x="8.57" y="23.74" width="1.99" height="1.99" rx="1" ry="1"/>
    <rect class="cls-33" x="17.98" y="26.37" width="1.58" height="1.58" rx=".79" ry=".79"/>
    <rect class="cls-29" x="7.11" y="17.72" width="1.4" height="1.33" rx=".66" ry=".66"/>
    <rect class="cls-29" x="9.93" y="13.06" width="1.4" height="1.33" rx=".66" ry=".66"/>
    <rect class="cls-29" x="12.45" y="13.16" width="1.89" height="1.79" rx=".9" ry=".9"/>
    <rect class="cls-29" x="8.73" y="10.57" width="1.4" height="1.33" rx=".66" ry=".66"/>
    <rect class="cls-29" x="6.22" y="13.06" width="1.5" height="1.5" rx=".75" ry=".75"/>
    <rect class="cls-29" x="8.67" y="15.54" width="1.25" height="1.19" rx=".59" ry=".59"/>
    <rect class="cls-29" x="12.85" y="8.16" width=".92" height=".88" rx=".44" ry=".44"/>
    <path class="cls-14" d="m19.53,7.18h.17c.18,0,.32.14.32.32v.12c0,.24-.2.44-.44.44h-.05c-.24,0-.44-.2-.44-.44h0c0-.24.2-.44.44-.44Z"/>
    <rect class="cls-14" x="22.38" y="6.62" width="1.95" height="1.85" rx=".93" ry=".93"/>
    <rect class="cls-29" x="16.32" y="8.95" width="1.51" height="1.43" rx=".71" ry=".71"/>
    <rect class="cls-29" x="12.85" y="10.82" width="1.51" height="1.43" rx=".71" ry=".71"/>
    <rect class="cls-29" x="16.55" y="12.98" width="1.89" height="1.79" rx=".89" ry=".89"/>
    <rect class="cls-13" x="32.9" y="8.28" width="2.3" height="2.18" rx="1.09" ry="1.09"/>
    <rect class="cls-33" x="5.21" y="22.03" width="1.5" height="1.5" rx=".75" ry=".75"/>
    <rect class="cls-12" x="9.3" y="19.75" width="2.05" height="1.94" rx=".97" ry=".97"/>
    <rect class="cls-13" x="25.73" y="8.56" width="3.22" height="3.22" rx="1.61" ry="1.61"/>
    <rect class="cls-33" x="17.87" y="22.41" width="1.99" height="1.99" rx="1" ry="1"/>
    <rect class="cls-33" x="12.98" y="22.74" width="2.76" height="2.58" rx="1.29" ry="1.29"/>
    <rect class="cls-5" x="15.73" y="36.49" width="2.52" height="2.48" rx="1.24" ry="1.24"/>
    <path class="cls-31" d="m62.94,48.12c-.06.05-.27.16-.38.22-.25.12-.64.24-1.21.44,0,0-.83.23-1.22.76,0,0-.42.57.05,1.4,0,0,.35.57.39,1.24,0,0,.1.6-.26.68-.05.01-.26,0-.38.01-.19.01-.5.02-.82,0,0,0-.29-.03-.37.14,0,0-.2.26.09.5,0,0,.18.15.6.16,0,0,1.06.03.79.7,0,0-.18.4-.56.79-.18.18-.44.31-.58.42-.35.26-.83.77-.36,1.65,0,0,1.64,2.6.05,4.38-.09.1-.4.39-.61.54-.3.21-.82.5-1.53.67-.18.04-.82.11-1.28.09-.53-.02-1.33-.08-2.39-.24-.28-.04-2.07-.26-3.05-.26-.07,0-.44-.01-.81,0,0,0-1.1-.02-1.18.91,0,0-.35,4.89-.41,5.63l-.02.28s.05.21-.43.21h-7.71s-2.88-.08-4.54-.24c0,0-3.97-.3-6.24-2.01-.31-.23-1.29-1.16-1.83-2.36-.21-.46-.44-1.01-.64-1.71,1.88.34,3.82.52,5.8.52,13.34,0,24.8-8.05,29.78-19.56.49.79.92,1.51,1.16,1.99,0,0,.87,1.44.11,2.07Z"/>
    <path class="cls-1" d="m61.67,44.07c-4.98,11.51-16.44,19.56-29.78,19.56-1.98,0-3.92-.18-5.8-.52-.23-.8-.43-1.8-.53-3.13.55.03,1.1.04,1.65.04,1.74,0,3.45-.14,5.12-.42.15.86.47,1.85,1.19,2.41.06.05.61.52,1.61.62.37.04.75.06,1.3.08,0,0,1.97.04,2.81.05.06,0,.52.05.41-.8,0,0-.22-1.97,0-4.54,10.33-4.53,17.72-14.55,18.48-26.36.21.62.4,1.27.56,1.95.05.2.39,1.74.48,2.29.09.56.12,1.29.06,2.01-.03.37-.22.87-.31,1.04-.1.17-.24.41-.41.65,0,0-.09.13.04.32.02.03.14.18.26.36.49.72,1.82,2.71,2.87,4.38Z"/>
    <path class="cls-3" d="m58.13,31.07c-.76,11.82-8.15,21.83-18.48,26.36.1-1.11.28-2.33.6-3.55,0,0,.31-1.23.73-2.81,6.6-5.43,10.85-13.87,10.85-23.36,0-2.26-.24-4.47-.7-6.59,2.56,2.03,5.41,5.2,7,9.95Z"/>
    <path class="cls-24" d="m32.32,59.61c-1.66.28-3.37.42-5.12.42-.55,0-1.1-.01-1.65-.04-.02-.23-.03-.47-.04-.72v-1.97c2.32-.17,4.56-.63,6.7-1.34v2.05s-.04.74.11,1.61Z"/>
    <path class="cls-24" d="m51.83,27.71c0,9.49-4.24,17.93-10.85,23.36.6-2.26,1.41-5.24,1.83-6.44.26-.75.63-1.76.97-2.96,0,0,0,0,0,0,2.16-4.26,3.39-9.18,3.39-14.44,0-3.18-.45-6.23-1.29-9.1.69.25,1.39.54,1.92.82.93.49,2.09,1.2,3.32,2.18.46,2.12.7,4.32.7,6.59Z"/>
    <path class="cls-11" d="m32.21,53.67v2.28c-2.13.72-4.38,1.18-6.7,1.34v-1.29c2.36-.44,4.6-1.24,6.7-2.34Z"/>
    <path class="cls-4" d="m32.21,50.97v2.7c-2.1,1.1-4.34,1.9-6.7,2.34v-1.19c2.41-.85,4.67-2.16,6.7-3.85Z"/>
    <path class="cls-11" d="m44.73,35.55c0-.43.08-2.39-.7-4.36-.33-.84-.8-1.78-1.46-2.69.02-.5.03-1,.03-1.5,0-1.64-.11-3.24-.32-4.8.61.21,1.24.45,1.88.71,0,0,.05-.49-.82-.96,0,0-.41-.32-1.21-.75-.25-1.48-.58-2.91-1-4.3.84.14,1.7.31,2.59.54.38.1,1.26.36,2.18.69h0c.83,2.86,1.29,5.92,1.29,9.1,0,5.25-1.23,10.18-3.39,14.44.49-1.73.94-3.84.95-6.12Z"/>
    <path class="cls-10" d="m40.5,39.59v5.92h-3.37c1.22-1.8,2.27-3.79,3.11-5.92h.25Z"/>
    <path class="cls-4" d="m42.59,27c0,.5-.01,1-.03,1.5-.87-1.19-2.08-2.34-3.81-3.18-.04-.02-.08-.04-.13-.06-.08-1.43-.24-2.84-.46-4.21,1.28.26,2.65.64,4.11,1.15.21,1.56.32,3.17.32,4.8Z"/>
    <path class="cls-4" d="m42.12,21.21c-.91-.49-2.33-1.12-4.23-1.59-.22-1.05-.47-2.08-.77-3.08,1.25.03,2.58.14,3.99.37.42,1.39.76,2.82,1,4.3Z"/>
    <path class="cls-4" d="m32.21,48.52v2.45c-2.03,1.69-4.28,3-6.7,3.85v-.19c2.51-1.46,4.78-3.55,6.7-6.11Z"/>
    <path class="cls-10" d="m40.25,39.59c-.84,2.13-1.89,4.12-3.11,5.92h-2.96c1.03-1.82,1.91-3.8,2.61-5.92h3.46Z"/>
    <path class="cls-10" d="m37.89,19.62c-1.69-.42-3.77-.7-6.2-.63-.68.02-2.63.23-3.39.39-.81.17-1.92.44-2.98.81,0,0-.25-.06-.6-.44,0,0,4.53-3.37,12.4-3.21.3,1,.55,2.03.77,3.08Z"/>
    <path class="cls-10" d="m38.62,25.26c-.93-.44-3.74-1.64-6.73-1.28-2.5.3-5.65,1.18-8.05,4.52,0,0-.49,1.06-.6,1.93-.01.07-.02.14-.02.21,0,.05-.02.09-.05.13-.02.02-.04.05-.07.08-.27.35-.95,1.25-1.06,1.78,0,0-.95-2.43-.52-4.89.13-.75.71-2.63,2.59-4.2.48-.41,1.11-.84,1.9-1.27,2.34-1.29,6.34-2.4,12.16-1.21.23,1.37.38,2.78.46,4.21Z"/>
    <path class="cls-10" d="m36.79,39.59c-.7,2.12-1.58,4.1-2.61,5.92h-1.96v3.01c-1.92,2.57-4.19,4.65-6.7,6.11v-19.56l6.74-4.71v9.23h4.53Z"/>
    <g>
      <path class="cls-21" d="m34.25,19.05c-.8-.06-1.65-.08-2.55-.06-.18,0-.45.02-.77.05-.54-.51-1.11-.98-1.72-1.4.91-.29,1.94-.56,3.1-.75.72.65,1.37,1.37,1.94,2.16Z"/>
      <path class="cls-21" d="m36.62,24.49c-.69-.21-1.49-.4-2.35-.5-.49-1.23-1.14-2.38-1.95-3.41.9-.05,1.87-.04,2.92.05.64,1.19,1.11,2.49,1.38,3.86Z"/>
      <path class="cls-10" d="m30.93,19.04c-.87.08-2.07.22-2.62.34-.06.01-.13.03-.2.04-.42-.3-.86-.58-1.32-.84.66-.31,1.47-.64,2.42-.94.61.42,1.19.89,1.72,1.4Z"/>
      <path class="cls-10" d="m34.26,23.99c-.67-.08-1.38-.1-2.1-.03-.63-1.13-1.41-2.16-2.32-3.06.75-.15,1.58-.26,2.47-.31.8,1.03,1.46,2.18,1.95,3.41Z"/>
      <path class="cls-23" d="m28.11,19.42c-.77.17-1.77.42-2.73.75-.12-.06-.25-.11-.38-.16,0,0,0,0,0,0-.08-.06-.18-.15-.28-.26,0,0,.71-.53,2.06-1.16.46.25.9.53,1.32.84Z"/>
      <path class="cls-23" d="m32.16,23.95c-.09,0-.18.02-.27.03-.43.05-.88.12-1.35.22-.82-1.03-1.78-1.94-2.85-2.7.64-.24,1.35-.44,2.15-.61.91.91,1.69,1.94,2.32,3.06Z"/>
      <path class="cls-28" d="m30.55,24.2c-.46.1-.93.22-1.41.37h0c-.94-.91-2.01-1.68-3.17-2.29.01,0,.03-.01.04-.02.49-.27,1.05-.53,1.69-.77,1.07.76,2.03,1.67,2.85,2.7Z"/>
      <path class="cls-6" d="m29.14,24.57c-.42.14-.84.31-1.27.51-1.04-.76-2.18-1.38-3.41-1.83.41-.31.91-.64,1.51-.97,1.17.61,2.23,1.38,3.17,2.29Z"/>
      <path class="cls-19" d="m27.87,25.08c-.28.13-.55.28-.83.44-1.2-.54-2.5-.91-3.86-1.09.26-.3.57-.61.92-.9.11-.09.23-.19.36-.28,1.23.45,2.38,1.07,3.41,1.83Z"/>
      <path class="cls-7" d="m27.05,25.52c-.34.2-.67.43-1,.68-.73-.12-1.49-.18-2.25-.18-.58,0-1.16.04-1.73.11.26-.53.62-1.11,1.12-1.69,1.36.17,2.65.55,3.86,1.09Z"/>
      <path class="cls-18" d="m26.05,26.2c-.36.27-.71.58-1.05.93-1.2.02-2.36.2-3.46.51.07-.35.23-.89.53-1.51.57-.07,1.14-.11,1.73-.11.77,0,1.52.06,2.25.18Z"/>
      <path class="cls-26" d="m25,27.13c-.26.26-.51.54-.75.85-1,.29-1.95.7-2.84,1.2,0-.47.03-.95.11-1.44,0-.03.01-.07.02-.1,1.1-.31,2.26-.48,3.46-.51Z"/>
      <path class="cls-16" d="m24.25,27.97c-.14.17-.27.35-.4.53,0,0-.26.56-.44,1.2-.64.36-1.25.77-1.82,1.22-.09-.51-.17-1.11-.17-1.75.89-.5,1.84-.91,2.84-1.2Z"/>
      <path class="cls-20" d="m23.4,29.7c-.07.24-.13.49-.16.73,0,.07-.02.14-.02.21,0,.05-.02.09-.05.13-.02.02-.04.05-.07.08-.27.35-.95,1.25-1.06,1.78,0,0-.27-.69-.46-1.71.57-.45,1.18-.86,1.82-1.22Z"/>
    </g>
    <path class="cls-5" d="m13.82,45.01c-1.06,0-1.91.86-1.91,1.91h0c0,1.06.86,1.91,1.91,1.91s1.91-.86,1.91-1.91h0c0-1.06-.86-1.91-1.91-1.91Zm-.49,2.78h-.35v-1.17h.35v1.17Zm-.17-1.31c-.12,0-.21-.09-.21-.21s.09-.21.21-.21.21.09.21.21-.09.21-.21.21Zm1.53.59v.73h-.36v-.64c0-.25-.19-.23-.19-.23,0,0-.17-.03-.23.23v.64h-.35v-1.17h.35v.17c.06-.1.16-.19.36-.19.44,0,.42.46.42.46Z"/>
    <path class="cls-33" d="m11.18,33.16c-1.06,0-1.91.86-1.91,1.91s.86,1.91,1.91,1.91,1.91-.86,1.91-1.91-.86-1.91-1.91-1.91Zm.54,1.98h-.36v1.16h-.53v-1.16h-.25v-.45h.25v-.29c0-.21.1-.54.54-.54h.4v.44h-.29s-.11.02-.11.12v.27h.41l-.05.45Z"/>
    <g>
      <path class="cls-5" d="m20.97,42.01h-1.12c-.27,0-.49.22-.49.49v1.12c0,.27.22.49.49.49h1.12c.27,0,.49-.22.49-.49v-1.12c0-.27-.22-.49-.49-.49Zm-.56,1.72c-.37,0-.66-.3-.66-.66s.3-.66.66-.66.66.3.66.66-.3.66-.66.66Zm.69-1.2c-.08,0-.15-.07-.15-.15s.07-.15.15-.15.15.07.15.15-.07.15-.15.15Z"/>
      <circle class="cls-5" cx="20.41" cy="43.07" r=".43"/>
      <path class="cls-5" d="m20.41,41.16h0c-1.06,0-1.91.86-1.91,1.91s.86,1.91,1.91,1.91h0c1.06,0,1.91-.86,1.91-1.91s-.86-1.91-1.91-1.91Zm1.26,2.48c0,.38-.31.69-.69.69h-1.13c-.38,0-.69-.31-.69-.69v-1.13c0-.38.31-.69.69-.69h1.13c.38,0,.69.31.69.69v1.13Z"/>
    </g>
    <g>
      <path class="cls-5" d="m11.18,39.95c-.79,0-1.43.64-1.43,1.43h0c0,.79.64,1.43,1.43,1.43s1.43-.64,1.43-1.43h0c0-.79-.64-1.43-1.43-1.43Zm.79,1.75c0,.13-.11.24-.24.24h-1.11c-.13,0-.24-.11-.24-.24v-.64c0-.13.11-.24.24-.24h1.11c.13,0,.24.11.24.24v.64Z"/>
      <polygon class="cls-5" points="11.02 41.65 11.47 41.35 11.02 41.05 11.02 41.65"/>
    </g>
    <path class="cls-33" d="m18.33,30.88c-.97,0-1.75.78-1.75,1.75s.78,1.75,1.75,1.75,1.75-.78,1.75-1.75-.78-1.75-1.75-1.75Zm.18,2.37c-.17-.01-.24-.1-.37-.18-.07.38-.16.75-.42.94-.08-.58.12-1.01.21-1.47-.16-.27.02-.8.35-.67.41.16-.36.99.16,1.1.54.11.76-.93.42-1.27-.48-.49-1.4-.01-1.29.69.03.17.2.22.07.46-.31-.07-.4-.31-.39-.64.02-.53.48-.9.94-.95.58-.07,1.13.21,1.2.76.08.62-.26,1.29-.88,1.24Z"/>
    <g>
      <path class="cls-12" d="m21.17,18.23c-.09,0-.16.03-.22.09-.05.06-.08.15-.08.28s.03.21.08.28c.06.06.13.09.21.09s.16-.03.21-.09c.06-.06.08-.16.08-.28s-.03-.22-.08-.28c-.05-.06-.13-.09-.21-.09Z"/>
      <path class="cls-12" d="m20.16,16.57c-1.1,0-1.99.89-1.99,1.99s.89,1.99,1.99,1.99,1.99-.89,1.99-1.99-.89-1.99-1.99-1.99Zm-.71,2.42c-.03.05-.08.09-.14.12s-.14.04-.23.04c-.14,0-.24-.03-.31-.09-.07-.06-.12-.15-.13-.28l.21-.02c.01.07.04.12.08.16.04.03.09.05.16.05.07,0,.12-.01.16-.04.04-.03.05-.06.05-.1,0-.03,0-.05-.02-.07-.01-.02-.04-.03-.08-.05-.03,0-.08-.02-.17-.05-.12-.03-.2-.06-.24-.11-.07-.06-.1-.13-.1-.22,0-.05.02-.11.05-.15.03-.05.08-.08.13-.11.06-.02.13-.04.21-.04.13,0,.24.03.3.09s.1.14.11.24h-.22s-.03-.09-.06-.11-.08-.04-.14-.04-.11.01-.15.04c-.02.02-.03.04-.03.07,0,.03.01.05.03.07.03.02.09.05.2.07.11.02.18.05.23.08.05.03.09.06.12.11.03.05.04.1.04.17,0,.06-.02.12-.05.17Zm1.05.14h-.82v-1.07h.8v.18h-.58v.24h.54v.18h-.54v.29h.6v.18Zm1.04-.13c-.09.1-.22.15-.38.15s-.29-.05-.38-.15c-.09-.1-.14-.23-.14-.4,0-.11.02-.2.05-.28.02-.05.06-.1.1-.15.04-.04.09-.08.14-.1.07-.03.14-.04.23-.04.16,0,.28.05.38.15.09.1.14.23.14.41s-.05.31-.14.41Z"/>
    </g>
    <g>
      <path class="cls-12" d="m13.03,17.96c-.05,0-.1,0-.15,0-.04,0-.04,0-.04.04,0,.06-.02.12-.03.18,0,.05-.02.1-.02.15.06,0,.12,0,.17,0,.09,0,.15-.05.17-.14,0-.02.01-.05.02-.07.02-.08-.03-.14-.11-.14Z"/>
      <path class="cls-12" d="m14.74,17.96c-.05,0-.1,0-.15,0-.04,0-.04,0-.04.04,0,.06-.02.11-.03.17,0,.05-.02.1-.03.15.06,0,.12,0,.17,0,.08,0,.15-.05.17-.14,0-.03.01-.05.02-.08.02-.08-.03-.14-.11-.14Z"/>
      <path class="cls-12" d="m13.77,16.45c-.94,0-1.7.76-1.7,1.7s.76,1.7,1.7,1.7,1.7-.76,1.7-1.7-.76-1.7-1.7-1.7Zm-.8,2.06c-.07,0-.14,0-.21,0h-.03c-.02.08-.03.16-.05.24,0,0,0,.02-.02.02-.07,0-.15,0-.23,0,0-.03.01-.06.02-.09.04-.22.09-.43.13-.65.02-.08.03-.16.05-.24,0-.02.01-.03.03-.03.14,0,.28,0,.42,0,.05,0,.11.01.15.03.09.03.14.11.15.2.01.16-.03.3-.16.41-.07.06-.16.1-.25.1Zm1.14,0c-.08,0-.16,0-.24,0,.01-.07.03-.14.04-.21.02-.09.03-.18.05-.27,0-.05,0-.07-.05-.07-.06,0-.12,0-.18,0-.02,0-.02,0-.03.02-.02.1-.04.2-.06.3-.01.07-.03.14-.04.21,0,0-.01.02-.02.02-.07,0-.14,0-.22,0,.02-.09.04-.17.05-.26.04-.2.08-.4.12-.6,0-.04.01-.08.02-.11,0-.01,0-.02.02-.02.07,0,.14,0,.21,0,0,0,0,0,.01,0,0,.05-.02.09-.02.14,0,.03-.01.06-.02.1,0,.02,0,.02.02.02.06,0,.13,0,.19,0,.06,0,.12.01.17.04.07.04.1.11.08.18-.03.17-.06.33-.08.5,0,0,0,.02-.01.02Zm.56,0c-.07,0-.14,0-.21,0-.02,0-.03,0-.03.03-.01.07-.02.14-.04.21,0,0-.01.02-.02.02-.07,0-.14,0-.21,0,0,0,0,0-.01,0,.02-.11.04-.21.06-.31.03-.15.06-.29.09-.44.01-.07.03-.14.04-.22,0-.02,0-.03.03-.03.15,0,.29,0,.44,0,.07,0,.13.02.19.06.06.04.09.11.1.18.01.14-.02.26-.12.37-.08.09-.18.14-.3.14Z"/>
    </g>
    <g>
      <path class="cls-13" d="m28.95,13.76s-.06.04-.06.07c0,.04.02.07.07.06.03,0,.05-.03.08-.05,0-.01,0-.02,0-.03-.03-.02-.06-.05-.08-.05Z"/>
      <path class="cls-13" d="m29.68,13.76s-.06.04-.06.07c0,.02.04.06.06.07.02,0,.05-.03.08-.05,0-.01,0-.02,0-.03-.03-.02-.05-.05-.08-.05Z"/>
      <path class="cls-13" d="m29.32,12.91c-1.02,0-1.84.83-1.84,1.84s.83,1.84,1.84,1.84,1.84-.83,1.84-1.84-.83-1.84-1.84-1.84Zm-.39.61c-.04-.08-.08-.17-.13-.26.01,0,.02-.01.03-.02.05.08.09.17.14.25.23-.1.45-.1.68,0,.05-.09.09-.17.14-.25h.03c-.02.1-.09.18-.12.27.25.15.39.36.4.66h-1.56c-.02-.21.1-.42.39-.66Zm-.47,1.67c0,.09-.06.16-.14.18-.08.01-.15-.02-.18-.1-.02-.04-.02-.08-.02-.13,0-.24,0-.47,0-.71,0-.11.04-.18.12-.2.12-.03.22.05.22.18,0,.13,0,.26,0,.39,0,.13,0,.26,0,.39Zm1.64.23c0,.18-.07.24-.25.25-.02,0-.04,0-.07,0,0,.08,0,.16,0,.23,0,.06,0,.13,0,.19,0,.1-.08.17-.18.17-.09,0-.16-.07-.16-.17,0-.12,0-.23,0-.35,0-.02,0-.04,0-.07h-.24c0,.14,0,.27,0,.4,0,.1-.07.18-.15.18-.1,0-.18-.06-.19-.17,0-.14,0-.28,0-.43-.04,0-.07,0-.1,0-.14,0-.22-.07-.22-.22,0-.05,0-.11,0-.16,0-.31,0-.63,0-.94,0-.06.01-.08.08-.08.47,0,.95,0,1.42,0,.06,0,.07.02.07.07,0,.36,0,.72,0,1.08Zm.42-.23c0,.11-.07.19-.17.19-.1,0-.17-.07-.17-.19,0-.25,0-.51,0-.76,0-.11.07-.19.17-.19.1,0,.17.08.17.19,0,.13,0,.26,0,.39,0,.12,0,.25,0,.37Z"/>
    </g>
    <path class="cls-13" d="m22.08,10.51c-.76,0-1.38.62-1.38,1.38h0c0,.76.62,1.38,1.38,1.38s1.38-.62,1.38-1.38h0c0-.76-.62-1.38-1.38-1.38Zm-.01.81s0-.08.02-.12c.02-.07.05-.13.1-.19.03-.04.08-.07.12-.1.05-.03.11-.05.17-.06,0,.01,0,.03,0,.04,0,.06-.01.12-.04.18-.02.06-.06.11-.1.16-.03.03-.07.06-.11.09-.03.02-.06.03-.1.03-.02,0-.05,0-.07,0,0,0,0,0,0,0,0-.01,0-.02,0-.04Zm.88,1.07c-.03.1-.08.2-.14.28-.04.05-.08.11-.12.15-.03.03-.07.06-.11.08-.04.02-.09.02-.13.02-.05,0-.1-.02-.15-.04-.04-.01-.08-.03-.13-.03-.05,0-.1,0-.15.01-.04.01-.07.03-.11.04-.03.01-.07.02-.1.03-.05,0-.1,0-.14-.02-.04-.02-.07-.04-.1-.07-.05-.05-.1-.11-.14-.18-.06-.1-.12-.21-.16-.33-.02-.06-.04-.13-.05-.2,0-.06-.01-.13,0-.2,0-.09.02-.17.05-.26.03-.09.08-.16.14-.22.06-.06.13-.1.21-.11.04,0,.08,0,.12,0,.07,0,.14.02.2.04.04.01.08.02.12.03.03,0,.06,0,.09,0,.05-.01.1-.03.15-.04.04-.01.08-.02.13-.03.04,0,.08,0,.12,0,.07,0,.14.03.2.08.04.03.08.06.11.1,0,0,.01.01.02.02-.01.01-.03.03-.04.04-.05.04-.09.09-.12.14-.03.05-.05.11-.06.17-.02.14.02.26.11.37.03.04.07.08.12.1.02,0,.03.01.05.02,0,0,0,.01,0,.02Z"/>
    <g>
      <path class="cls-13" d="m37.15,14.5s-.03,0-.04.02c-.01.01-.02.03-.02.05,0,.02,0,.04.02.05.01.01.02.02.04.02s.03,0,.04-.02.02-.03.02-.05,0-.04-.02-.05c-.01-.01-.03-.02-.04-.02Z"/>
      <path class="cls-13" d="m37.33,11.82c-1.01,0-1.83.82-1.83,1.83s.82,1.83,1.83,1.83,1.83-.82,1.83-1.83-.82-1.83-1.83-1.83Zm-.75,2.7s-.01.08-.04.11-.06.04-.1.04c-.01,0-.03,0-.04,0-.01,0-.02,0-.03-.01-.02-.01-.04-.03-.05-.05-.01-.02-.02-.05-.02-.08,0-.02,0-.05.01-.06,0-.02.02-.04.03-.05.01-.01.03-.02.04-.03.02,0,.04,0,.06,0,.03,0,.05,0,.07.01.02,0,.04.02.05.04l-.03.02s-.02-.03-.04-.04c-.02,0-.03-.01-.05-.01-.03,0-.06.01-.08.03s-.03.05-.03.09c0,.03.01.06.03.08.02.02.05.03.08.03.03,0,.05,0,.07-.03.02-.02.03-.04.03-.07h-.08v-.03h.12Zm.22.09s-.01.02-.02.03c0,0-.02.02-.03.02-.01,0-.02,0-.04,0s-.03,0-.04,0c-.01,0-.02-.01-.03-.02,0,0-.02-.02-.02-.03,0-.01,0-.02,0-.04s0-.03,0-.04c0-.01.01-.02.02-.03s.02-.02.03-.02c.01,0,.02,0,.04,0,.01,0,.02,0,.04,0,.01,0,.02.01.03.02,0,0,.02.02.02.03,0,.01,0,.02,0,.04s0,.03,0,.04Zm.23,0s-.01.02-.02.03c0,0-.02.02-.03.02-.01,0-.02,0-.04,0s-.03,0-.04,0c-.01,0-.02-.01-.03-.02,0,0-.02-.02-.02-.03,0-.01,0-.02,0-.04s0-.03,0-.04c0-.01.01-.02.02-.03s.02-.02.03-.02c.01,0,.02,0,.04,0,.01,0,.02,0,.04,0,.01,0,.02.01.03.02,0,0,.02.02.02.03,0,.01,0,.02,0,.04s0,.03,0,.04Zm.22.05s0,.03,0,.04c0,0,0,.02-.01.02,0,0-.02.02-.03.02-.01,0-.03,0-.04,0-.03,0-.05,0-.06-.02-.02-.01-.02-.03-.02-.05h.03s0,.03.01.03.02.01.04.01c.01,0,.02,0,.03,0,0,0,.02,0,.02-.02,0,0,0,0,0-.02,0,0,0-.01,0-.02h0v-.03s-.02.02-.03.03c-.01,0-.02.01-.04.01-.03,0-.05,0-.06-.03-.02-.02-.02-.04-.02-.07s0-.05.02-.07c.01-.02.04-.03.06-.03.01,0,.03,0,.04,0s.02.02.03.03v-.03h.03v.17Zm.09,0h-.03v-.3h.03v.3Zm.22-.08h-.14s0,.04.02.05.02.02.04.02c.01,0,.02,0,.03,0,0,0,.02-.02.03-.03l.02.02s-.02.03-.03.04c-.01,0-.03.01-.05.01-.03,0-.05,0-.07-.03-.02-.02-.02-.04-.02-.07s0-.05.02-.07c.02-.02.04-.03.06-.03s.05,0,.06.03c.02.02.02.04.02.07h0Zm.35.08l-.04-.09h-.11l-.04.09h-.04l.13-.3.13.3h-.04Zm.23,0h-.03v-.03s-.02.02-.03.03-.02.01-.04.01c-.03,0-.05,0-.06-.03-.02-.02-.02-.04-.02-.07s0-.05.02-.07c.02-.02.04-.03.06-.03.01,0,.03,0,.04,0,.01,0,.02.02.03.03v-.16h.03v.3Zm.16,0s-.03.02-.05.02c-.02,0-.03,0-.04,0-.01,0-.02-.02-.03-.03l.03-.02s.01.02.02.02c0,0,.02,0,.03,0s.02,0,.02,0c0,0,0-.01,0-.02,0,0,0-.01,0-.02s-.01,0-.02-.01h0s-.06-.04-.06-.06c0-.02,0-.03.02-.04.01,0,.03-.01.05-.01.02,0,.03,0,.04,0s.02.01.02.03l-.02.02s0-.01-.02-.02c0,0-.02,0-.02,0s-.02,0-.02,0c0,0,0,.01,0,.02,0,.01.01.02.04.03,0,0,0,0,.01,0,.02,0,.03.01.04.02,0,0,.01.02.01.03,0,.02,0,.03-.02.04Zm-.09-.53c-.16.09-.36.04-.45-.12l-.39-.68-.39.68c-.09.16-.29.21-.45.12-.16-.09-.21-.29-.12-.45l.68-1.18s0,0,.01-.01c.03-.04.06-.08.11-.11,0,0,0,0,0,0,0,0,0,0,0,0,.05-.02.09-.03.14-.04,0,0,.01,0,.02,0,.06,0,.11.01.17.04,0,0,0,0,.02.01.02.01.03.03.05.04.02.02.03.03.05.05,0,0,0,0,.01.01l.68,1.18c.09.16.04.36-.12.45Z"/>
      <polygon class="cls-13" points="37.76 14.54 37.86 14.54 37.81 14.43 37.76 14.54"/>
      <path class="cls-13" d="m36.93,14.5s-.03,0-.05.02c-.01.01-.02.03-.02.05s0,.03.02.05c.01.01.03.02.05.02s.03,0,.05-.02c.01-.01.02-.03.02-.05s0-.03-.02-.05c-.01-.01-.03-.02-.05-.02Z"/>
      <path class="cls-13" d="m36.7,14.5s-.03,0-.05.02c-.01.01-.02.03-.02.05s0,.03.02.05c.01.01.03.02.05.02s.03,0,.05-.02c.01-.01.02-.03.02-.05s0-.03-.02-.05c-.01-.01-.03-.02-.05-.02Z"/>
      <path class="cls-13" d="m37.47,14.5s-.03,0-.04.01-.02.02-.02.04h.11s0-.03-.02-.04c0,0-.02-.01-.04-.01Z"/>
      <path class="cls-13" d="m38.04,14.5s-.03,0-.04.02-.01.03-.01.05c0,.02,0,.04.02.05,0,.01.02.02.04.02s.03,0,.04-.02c.01-.01.02-.03.02-.05s0-.04-.02-.05c-.01-.01-.03-.02-.04-.02Z"/>
      <circle class="cls-13" cx="36.68" cy="13.82" r=".32"/>
    </g>
    <path class="cls-5" d="m22.61,48.91h-4.21c-.26,0-.48.21-.48.48v4.21c0,.26.21.48.48.48h4.21c.26,0,.48-.21.48-.48v-4.21c0-.26-.21-.48-.48-.48Zm-.91,1.77c-.1.1-.15.12-.15.12h0c-.03.85-.6,1.72-1.6,1.77-.38.02-.73-.13-1-.36.1.03.2.05.31.05.21,0,.4-.08.56-.2,0,0-.56-.16-.55-.42h.27s-.17-.06-.27-.15c-.16-.15-.26-.35-.21-.46,0,0,.03.03.11.05.08.03.15.03.15.03,0,0-.17-.12-.22-.25-.08-.21-.04-.47.04-.55,0,0,.03.17.51.41.24.12.52.21.73.22-.02-.05-.02-.14-.02-.2,0-.29.27-.52.6-.52.19,0,.35.07.46.19l.16-.07.19-.08s.01.01,0,.04c-.02.07-.17.21-.23.26h0s.05.01.11,0c.06-.02.21-.08.21-.08,0,0-.06.12-.16.22Z"/>
  </g>
</svg>